<svg width="57" height="58" viewBox="0 0 57 58" fill="none" xmlns="http://www.w3.org/2000/svg">
<path d="M22.394 46.9342C22.394 46.9342 12.802 44.5612 9.38377 40.668C5.96749 36.773 0.457069 31.2664 0.932056 7.99961C0.932056 7.99961 4.54157 4.29681 23.7238 14.6475M37.2938 45.4465C36.7226 46.8714 38.5369 57.1898 38.5369 57.1898C38.5369 57.1898 31.1304 52.3476 27.4276 43.4209C23.7229 34.4942 25.1488 32.6904 25.4334 27.4674C25.717 22.2435 30.5259 14.0935 33.3625 11.3712C35.4062 9.40839 42.2483 4.25112 45.9625 1.48401C46.2788 1.24887 46.6396 1.08064 47.0231 0.989592C47.4065 0.898548 47.8045 0.8866 48.1927 0.954478C48.5809 1.02236 48.9512 1.16863 49.2809 1.38439C49.6107 1.60014 49.8931 1.88084 50.1108 2.20934C54.4152 8.64403 56.8767 16.2143 56.7159 23.955C56.6207 28.5459 55.6069 33.1749 52.6171 36.2371C52.6171 36.2371 45.5656 43.0411 39.8667 43.7055C34.1697 44.3699 37.9496 54.7701 37.9496 54.7701L37.2938 45.4465Z" stroke="#010202" stroke-width="0.5" stroke-linecap="round" stroke-linejoin="round"/>
</svg>
